<?xml version="1.0" encoding="iso-8859-1"?>
<!-- Generator: Adobe Illustrator 18.1.1, SVG Export Plug-In . SVG Version: 6.00 Build 0)  -->
<svg version="1.1" id="Capa_1" xmlns="http://www.w3.org/2000/svg" xmlns:xlink="http://www.w3.org/1999/xlink" x="0px" y="0px"
	 viewBox="0 0 525.938 525.938" style="enable-background:new 0 0 525.938 525.938;" xml:space="preserve">
<g>
	<g>
		<path style="fill:#010002;" d="M525.938,262.67c0,72.516-25.701,134.472-77.098,185.871
			c-51.398,51.398-113.355,77.098-185.871,77.098c-44.227,0-85.365-10.26-123.416-30.779
			c-38.051-20.519-69.228-48.311-93.533-83.373l209.777-112.358c0.797-0.398,9.164-5.578,25.101-15.539v-26.896
			c0-148.618-0.197-234.083-0.598-256.395c45.023,2.789,86.361,16.135,124.014,40.042c37.654,23.907,67.336,55.483,89.053,94.729
			C515.082,174.316,525.938,216.85,525.938,262.67z M245.039,228.006c0-108.375,0.2-184.277,0.598-227.707
			C188.66,3.885,138.258,24.006,94.43,60.662c0.797,0.797,1.395,1.594,1.793,2.391L245.039,228.006z M69.328,86.959
			c0-0.398-0.199-0.797-0.597-1.195c-21.914,23.508-38.848,50.502-50.801,80.982S0,229.202,0,262.67
			c0,41.836,9.363,81.082,28.09,117.738l206.191-110.566L69.328,86.959z"/>
	</g>
</g>
<g>
</g>
<g>
</g>
<g>
</g>
<g>
</g>
<g>
</g>
<g>
</g>
<g>
</g>
<g>
</g>
<g>
</g>
<g>
</g>
<g>
</g>
<g>
</g>
<g>
</g>
<g>
</g>
<g>
</g>
</svg>
